PathFileType	4	(X/Y/Z)	D:\TRACE\v60_Jaco2_6-2-23\BothDRS_Motion2_2-platform.trc
DataRate	CameraRate	NumFrames	NumMarkers	Units	OrigDataRate	OrigDataStartFrame	OrigNumFrames
100.00	100.00	      48	5	mm	100.00	3751	      7500
Frame#	Time	Left_Front			Right_Front			Left_Aft			Right_Aft			Post			
		X1	Y1	Z1	X2	Y2	Z2	X3	Y3	Z3	X4	Y4	Z4	X5	Y5	Z5	

3751	37.500	-755.04388	41.12975	-631.01465	815.21393	42.09760	-636.24445	-662.74487	-14.54141	502.91327	779.13251	-16.27179	512.30524	31.58714	1353.40869	-890.24097	
3752	37.510	-754.30505	42.30640	-630.38403	815.71588	43.37848	-635.73474	-662.24219	-15.39706	503.03418	780.04773	-17.20482	512.67383	32.24298	1355.35449	-887.37433	
3753	37.520	-753.60571	43.76882	-630.05951	816.26312	44.96263	-635.37384	-661.39948	-16.73248	503.56409	780.76740	-17.96166	512.98834	32.96083	1357.22180	-884.99896	
3754	37.530	-752.96765	45.10852	-629.66882	816.79663	46.05298	-634.92438	-661.02716	-17.34897	503.69296	780.95020	-18.84367	513.24561	33.15565	1359.20410	-882.41809	
3755	37.540	-752.40833	46.21465	-629.32635	817.46838	47.30515	-634.56940	-660.83820	-18.17947	504.13736	781.50757	-19.82760	513.44336	33.87486	1360.94543	-880.05804	
3756	37.550	-752.00250	47.24958	-628.77277	817.92078	48.82542	-634.08502	-660.22711	-19.06780	504.35284	781.83167	-20.93976	513.68860	34.41877	1362.69275	-876.89172	
3757	37.560	-751.53912	49.17906	-628.54382	818.28351	49.96926	-633.88062	-659.64301	-20.17123	504.56250	782.72192	-22.17033	513.83911	34.95072	1364.62268	-874.15948	
3758	37.570	-751.40631	50.06194	-628.03082	818.87634	51.06919	-633.28522	-659.22174	-21.13060	505.05423	782.91644	-22.93121	514.20911	34.96643	1366.55835	-870.99017	
3759	37.580	-750.82758	51.22897	-627.76233	818.98767	51.97442	-632.93500	-658.89221	-21.97564	505.21982	783.20282	-23.81161	514.26935	35.49758	1368.30054	-868.02789	
3760	37.590	-750.60040	52.29686	-627.39807	819.38092	53.68856	-632.52936	-658.54541	-23.09086	505.43011	784.33649	-23.63854	515.28345	35.49705	1369.87634	-864.38367	
3761	37.600	-750.38379	53.73775	-626.96564	819.38934	54.62339	-632.38574	-658.52631	-23.63858	505.65927	785.30145	-23.32594	516.02881	35.99985	1371.08948	-861.08777	
3762	37.610	-750.30750	54.71790	-626.42786	819.62622	55.79874	-631.82178	-658.44873	-24.53940	505.85141	783.54205	-26.33515	515.30634	36.13086	1372.67456	-857.51520	
3763	37.620	-749.96393	55.88700	-626.18030	819.82672	56.85510	-631.69049	-658.11578	-25.27975	506.04367	784.07385	-27.32194	516.32269	36.38211	1373.98169	-854.65112	
3764	37.630	-749.97272	56.91460	-626.00092	819.84668	57.82368	-631.30945	-658.10248	-25.85551	506.18295	784.25775	-28.57839	515.24786	36.66438	1375.28784	-852.41022	
3765	37.640	-750.02429	57.73049	-625.86877	819.99213	58.64146	-630.92291	-658.14520	-26.37219	506.37204	783.72205	-29.23420	516.33173	36.52562	1376.44446	-850.21051	
3766	37.650	-749.95209	58.60978	-625.42975	819.91632	59.51079	-630.81854	-658.06134	-27.38106	506.65811	784.50403	-28.58525	518.17670	36.40552	1377.59460	-848.58826	
3767	37.660	-750.02423	59.26683	-625.05463	820.01056	60.27477	-630.34937	-658.14063	-27.92599	506.68631	783.94305	-30.43449	515.35400	37.09396	1378.92065	-847.81055	
3768	37.670	-750.05914	60.53061	-624.55023	819.93726	61.26512	-630.04681	-658.19550	-28.47817	506.73599	783.79669	-31.23373	515.17865	36.70474	1379.98865	-846.99402	
3769	37.680	-750.07629	61.50364	-624.49463	819.97729	62.36087	-629.99640	-657.95764	-29.18459	507.01147	783.62488	-31.95292	515.25201	36.89688	1381.49365	-845.90375	
3770	37.690	-750.23901	62.35407	-624.21466	819.92212	63.16381	-629.54144	-658.07281	-29.88542	507.22263	783.40399	-33.33797	514.34357	36.71047	1382.67664	-844.17596	
3771	37.700	-750.27832	63.04148	-623.80109	819.60376	63.85466	-629.26752	-658.27582	-30.36225	507.27707	783.85132	-33.56927	515.23468	36.66154	1383.87427	-842.61743	
3772	37.710	-750.72156	63.98876	-623.66504	819.16193	64.57121	-629.01123	-658.58026	-31.20331	507.55234	783.49725	-33.62180	516.68152	36.33127	1385.08020	-840.43756	
3773	37.720	-750.85919	64.88251	-623.36340	819.07684	65.70098	-628.58441	-658.70245	-31.54611	507.59354	783.19580	-34.09326	516.74908	35.95210	1386.10522	-838.25305	
3774	37.730	-751.25244	65.73362	-623.18127	818.70514	66.45845	-628.37225	-659.11810	-32.32071	507.87494	783.17401	-34.44475	517.17157	35.36318	1387.17590	-835.96051	
3775	37.740	-751.57520	66.39497	-623.00281	818.37158	66.99752	-628.28540	-659.52997	-32.77460	508.08563	782.84882	-34.67443	517.43152	34.72370	1387.82861	-832.93726	
3776	37.750	-752.03455	66.88652	-622.75067	818.02802	67.50518	-628.10913	-659.82434	-33.08424	508.22958	782.31708	-35.16475	517.24603	34.76399	1388.51929	-829.57178	
3777	37.760	-752.43030	67.29411	-622.27966	817.82184	67.86710	-627.77808	-660.16058	-33.41113	508.22443	781.49774	-35.41412	517.63397	34.80631	1388.82227	-826.99103	
3778	37.770	-752.49933	67.63503	-621.96667	817.39380	68.58720	-627.56293	-660.66724	-33.95091	508.32217	780.92755	-36.15708	518.12103	34.21862	1389.58374	-825.33801	
3779	37.780	-753.00897	68.20617	-621.90967	816.97614	69.19839	-627.46783	-660.97852	-34.24721	508.39386	781.21814	-36.48155	517.86359	33.43930	1390.35339	-824.16931	
3780	37.790	-753.28821	68.83887	-621.90125	816.52454	69.77473	-627.45013	-661.11682	-34.38104	508.38251	781.11853	-36.68640	517.95142	32.69382	1391.05420	-824.20959	
3781	37.800	-753.58240	69.42046	-621.74402	816.05798	70.15442	-627.28156	-661.69171	-34.97503	508.42596	780.80664	-36.93918	518.00958	32.59448	1391.89307	-824.38495	
3782	37.810	-754.20203	70.00027	-621.65906	815.55969	70.50094	-627.06818	-661.90710	-35.72308	508.98584	779.86426	-37.44504	517.95184	32.36670	1392.47546	-824.79181	
3783	37.820	-754.68811	70.39369	-621.58722	815.23541	70.82771	-626.86438	-662.68970	-35.69756	508.59811	778.99847	-37.82351	518.33630	32.16140	1393.15161	-825.25378	
3784	37.830	-755.37476	70.81368	-621.51685	814.68658	71.22810	-626.69391	-663.22583	-36.00928	508.81140	778.61963	-38.22071	518.48395	32.03402	1393.59766	-825.08759	
3785	37.840	-755.77496	71.13320	-621.43756	814.26807	71.64857	-626.55585	-663.79968	-36.27913	508.84009	778.63867	-38.51506	518.45978	31.60161	1394.48889	-824.74890	
3786	37.850	-756.33826	71.54213	-620.95190	813.79486	71.89725	-626.42938	-664.02991	-36.47450	508.97949	778.39307	-38.56930	518.47522	30.76485	1394.99341	-824.01630	
3787	37.860	-756.77631	71.80945	-620.92218	813.09583	72.19432	-626.33636	-664.55670	-36.72906	509.00214	777.97180	-38.66675	518.39679	30.04547	1395.40112	-823.08765	
3788	37.870	-757.29236	71.86304	-620.88525	812.45905	72.51962	-626.33069	-665.18542	-37.06122	508.88217	776.26532	-38.92321	518.35907	29.77078	1395.46606	-821.57166	
3789	37.880	-758.06403	71.85515	-620.80298	812.14020	72.78155	-626.15881	-665.58264	-37.30101	508.92267	775.88751	-39.51307	518.19269	29.28111	1395.44214	-819.56866	
3790	37.890	-758.58588	72.17831	-620.84161	811.56689	72.92832	-626.18488	-666.16980	-37.47629	508.94470	775.76776	-39.55302	518.23309	28.50830	1395.26636	-817.68329	
3791	37.900	-759.31543	72.39960	-620.92535	810.81317	73.01466	-626.08423	-666.54651	-37.64840	509.05566	774.97968	-39.56651	518.37952	27.48505	1395.34143	-816.46936	
3792	37.910	-759.84760	72.26685	-620.88409	810.20740	73.08958	-626.07990	-667.18927	-37.34514	508.99405	774.36182	-39.53610	518.32617	27.06330	1395.53772	-815.81134	
3793	37.920	-760.40198	72.10437	-620.74005	809.62030	73.34967	-626.11499	-668.01910	-37.30089	508.98367	773.46442	-39.22855	518.70624	26.21345	1395.57324	-815.60095	
3794	37.930	-761.10583	72.02541	-620.67719	809.07056	73.29156	-626.15369	-668.81012	-37.58594	509.09280	773.21954	-39.40676	518.77258	25.85625	1395.60120	-816.03387	
3795	37.940	-761.73834	72.08124	-620.67133	808.21497	72.80854	-626.14606	-669.42908	-37.52248	508.83231	772.61359	-39.47894	518.66266	24.65932	1395.72119	-816.98572	
3796	37.950	-762.55865	72.40443	-620.79242	807.39063	72.78690	-626.11292	-669.76636	-37.75416	509.08591	771.66956	-39.61380	518.52545	24.41264	1395.64026	-818.16089	
3797	37.960	-763.26154	72.37572	-620.84534	806.59515	72.93140	-626.16168	-670.60199	-37.61299	508.97702	771.12781	-39.55062	518.44678	23.88290	1395.72144	-819.66272	
3798	37.970	-763.98175	72.05444	-620.72351	806.05389	72.87534	-626.22034	-671.18634	-37.46494	509.03696	770.46417	-39.41993	518.83929	23.49131	1395.49609	-820.59094	
